<svg width="45" height="46" fill="#fff" xmlns="http://www.w3.org/2000/svg" xmlns:xlink="http://www.w3.org/1999/xlink" xml:space="preserve" overflow="hidden"><defs><clipPath id="clip0"><rect x="502" y="315" width="45" height="46"/></clipPath></defs><g clip-path="url(#clip0)" transform="translate(-502 -315)"><path d="M22.5 4.6875C12.6562 4.6875 4.6875 12.6562 4.6875 22.5 4.6875 32.3438 12.6562 40.3125 22.5 40.3125 32.3438 40.3125 40.3125 32.3438 40.3125 22.5 40.3125 12.6562 32.3438 4.6875 22.5 4.6875ZM6.5625 22.5C6.5625 18.3281 8.15625 14.5781 10.7812 11.7188 11.2031 11.9531 11.625 12.3281 11.7188 12.6562L11.7188 15.6094C11.7188 15.7969 11.7656 16.0312 11.9062 16.1719L15 20.1562 15.2344 19.9219C15.375 19.7812 15.4219 19.5469 15.3281 19.3594L14.7656 18.4219C14.5312 18.0469 14.9062 17.5781 15.3281 17.7188 15.4688 17.7656 15.5625 17.8594 15.6094 17.9531L17.1562 21C17.3438 21.3281 17.625 21.6094 17.9531 21.7031L20.0156 22.4062C20.1562 22.4531 20.25 22.5469 20.2969 22.6406L20.4375 22.875C20.5781 23.2031 20.9062 23.3906 21.2812 23.3906L21.8438 23.3906C21.9844 23.3906 22.125 23.4844 22.2188 23.5781L22.8281 24.4688C22.9688 24.6562 23.1562 24.7969 23.3906 24.8438L24.375 25.0781C24.6562 25.125 24.7969 25.4531 24.7031 25.6875 24.7031 25.6875 23.9531 26.4375 23.9531 27.5156 23.9531 30.6094 26.7656 31.5 26.7656 32.2031 26.7656 34.125 26.4844 36.7969 26.3438 37.8281 25.125 38.1094 23.8594 38.2969 22.5469 38.2969 13.7344 38.4375 6.5625 31.2656 6.5625 22.5ZM28.5 37.2656C29.5312 36.375 31.2656 34.875 31.875 34.2188 32.6719 33.3281 32.8125 31.875 32.8125 31.875 32.8125 31.875 36.0938 30.9844 36.0938 28.5938 36.0938 26.9531 32.8125 26.25 32.8125 26.25 32.25 24.4219 29.4844 23.4375 27.1875 23.4375 26.6719 23.4375 24.8438 24.375 24.8438 24.375L23.9062 23.9062 23.9062 22.5C23.9062 22.2188 23.7188 22.0312 23.4375 22.0312L22.5 22.0312 22.5 20.625C22.5 20.3438 22.3125 20.1562 22.0312 20.1562L21.5625 20.1562 21.0469 20.4844C20.5781 20.8125 19.9219 20.625 19.6875 20.1094 19.6875 20.1094 19.2188 19.4531 19.2188 19.1719 19.2188 17.1562 21.5625 17.2969 21.5625 17.2969L22.5938 17.2969C22.8281 17.2969 23.0156 17.4375 23.0625 17.6719L23.3438 18.8438C23.3906 19.0312 23.5781 19.2188 23.8125 19.2188L24 19.2188C24.2344 19.2188 24.4219 19.0781 24.4688 18.8438L24.7969 17.1094C24.8438 16.9688 24.8906 16.8281 24.9844 16.6875L26.2969 15.0469C26.5781 14.7188 26.9531 14.5312 27.375 14.5312L28.5938 14.5312C28.875 14.5312 29.0625 14.3438 29.0625 14.0625L29.0625 13.5938 28.9219 13.4531C28.6406 13.1719 28.8281 12.6562 29.25 12.6562L29.5312 12.6562C29.8125 12.6562 30 12.8438 30 13.125 30 13.4062 30.1875 13.5938 30.4688 13.5938L30.9375 13.5938 31.2188 12.375C31.3125 11.9531 31.125 11.5781 30.7969 11.3438L26.8125 8.95312C26.7656 8.90625 26.6719 8.90625 26.5781 8.90625L25.7812 8.90625C25.2656 8.90625 24.8438 9.32812 24.8438 9.84375L24.8438 10.3125C24.8438 10.5938 24.6562 10.7812 24.375 10.7812L23.9062 10.7812 23.4375 10.3125 22.0312 10.3125C21.75 10.3125 21.5625 10.125 21.5625 9.84375L21.5625 8.67188C21.5625 8.53125 21.6094 8.39062 21.75 8.29688L24.75 7.03125 25.2188 7.82813C25.3125 7.92188 25.4062 7.96875 25.5469 7.96875L26.7188 7.96875C27 7.96875 27.1875 7.78125 27.1875 7.5L27.1875 7.26562C33.7031 9.28125 38.4375 15.3281 38.4375 22.5 38.4375 29.1562 34.3125 34.875 28.5 37.2656Z" transform="matrix(1 0 0 1.02222 502 315)"/><path d="M28.2656 20.5312 26.0156 19.7812C25.8281 19.7344 25.6875 19.7344 25.5 19.7812L23.9062 20.1562C23.7656 20.25 23.7188 20.4375 23.9062 20.625L26.0625 20.625C26.2031 20.625 26.2969 20.625 26.3906 20.6719L28.0312 21.3281C28.3125 21.4219 28.5938 21.2344 28.5938 20.9531 28.5938 20.7656 28.4531 20.5781 28.2656 20.5312Z" transform="matrix(1 0 0 1.02222 502 315)"/></g></svg>