<svg width="142" height="148" xmlns="http://www.w3.org/2000/svg" xmlns:xlink="http://www.w3.org/1999/xlink" xml:space="preserve" overflow="hidden"><defs><clipPath id="clip0"><rect x="882" y="1005" width="142" height="148"/></clipPath></defs><g clip-path="url(#clip0)" transform="translate(-882 -1005)"><path d="M915.041 1083.6C917.689 1083.6 920.319 1085.57 920.319 1088.23L920.319 1092.7C920.319 1096.8 916.869 1099.65 912.394 1099.65 908.123 1099.65 904.673 1096.44 904.673 1092.7L904.673 1088.23C904.673 1085.75 906.91 1083.6 909.951 1083.6ZM915.041 1103.94 915.041 1104.83C915.041 1105.36 915.246 1106.26 915.656 1106.98L912.394 1109.82 908.943 1106.98C909.336 1106.26 909.541 1105.54 909.541 1104.83L909.541 1103.94ZM910.156 1079.5C904.673 1079.5 900.197 1083.6 900.197 1088.23L900.197 1092.7C900.197 1096.26 902.23 1099.65 905.271 1101.61L905.271 1104.83 905.271 1105.01 899.582 1107.68C896.935 1108.76 895.517 1111.07 895.517 1113.39L895.517 1133.02C895.517 1134.8 895.927 1136.4 897.14 1138.01L899.787 1141.41C900.197 1141.93 900.59 1142.83 900.59 1143.71L900.59 1148.54C900.59 1149.6 901.615 1150.5 902.828 1150.5 904.058 1150.5 905.066 1149.6 905.066 1148.54L905.066 1143.71C905.066 1141.93 904.673 1140.51 903.238 1138.9L900.795 1135.52C900.197 1134.8 899.992 1133.9 899.992 1133.02L899.992 1113.39C899.992 1112.51 900.59 1111.61 901.615 1111.25L905.681 1109.46 909.336 1112.86C910.361 1113.75 911.779 1114.11 913.008 1114.11 914.221 1114.11 915.451 1113.75 916.459 1112.86L920.319 1109.46 924.402 1111.25C925.41 1111.61 926.025 1112.33 926.025 1113.39L926.025 1133.02C926.025 1133.9 925.615 1134.8 925.205 1135.52L922.557 1138.9C921.549 1140.15 920.934 1141.93 920.934 1143.71L920.934 1148.54C920.934 1149.6 921.959 1150.5 923.172 1150.5 924.402 1150.5 925.41 1149.6 925.41 1148.54L925.41 1143.71C925.41 1142.83 925.615 1141.93 926.23 1141.41L928.672 1138.01C929.68 1136.58 930.5 1134.8 930.5 1133.02L930.5 1113.39C930.09 1111.07 928.467 1108.76 926.025 1107.68L920.114 1105.01 920.114 1104.83 920.114 1101.61C923.172 1099.65 925.205 1096.44 925.205 1092.7L925.205 1088.23C925.205 1083.43 920.524 1079.5 915.246 1079.5Z" stroke="#FFFFFF" stroke-width="4.58333" stroke-miterlimit="8" fill="#FFFFFF" fill-rule="evenodd"/><path d="M955.034 1083.6C957.682 1083.6 960.331 1085.57 960.331 1088.23L960.331 1092.7C960.126 1096.8 956.862 1099.65 952.385 1099.65 948.112 1099.65 944.66 1096.44 944.66 1092.7L944.66 1088.23C944.66 1085.75 946.899 1083.6 949.941 1083.6ZM955.034 1103.94 955.034 1104.83C955.034 1105.36 955.239 1106.26 955.649 1106.98L952.385 1109.82 948.932 1106.98C949.343 1106.26 949.548 1105.54 949.548 1104.83L949.548 1103.94ZM950.146 1079.5C944.66 1079.5 940.182 1083.6 940.182 1088.23L940.182 1092.7C940.182 1096.26 942.216 1099.65 945.275 1101.61L945.275 1104.83 945.275 1105.01 939.567 1107.68C936.918 1108.76 935.5 1111.07 935.5 1113.39L935.5 1133.02C935.5 1134.8 935.91 1136.4 937.123 1138.01L939.772 1141.41C940.182 1141.93 940.593 1142.83 940.593 1143.71L940.593 1148.54C940.593 1149.6 941.601 1150.5 942.831 1150.5 944.045 1150.5 945.07 1149.6 945.07 1148.54L945.07 1143.71C945.07 1141.93 944.66 1140.51 943.242 1138.9L940.798 1135.52C940.182 1134.8 939.977 1133.9 939.977 1133.02L939.977 1113.39C939.977 1112.51 940.593 1111.61 941.601 1111.25L945.668 1109.46 949.343 1112.86C950.351 1113.75 951.786 1114.11 953 1114.11 954.213 1114.11 955.444 1113.75 956.452 1112.86L960.331 1109.46 964.399 1111.25C965.407 1111.61 966.022 1112.33 966.022 1113.39L966.022 1133.02C966.022 1133.9 965.612 1134.8 965.202 1135.52L962.57 1138.9C961.545 1140.15 960.93 1141.93 960.93 1143.71L960.93 1148.54C960.93 1149.6 961.955 1150.5 963.168 1150.5 964.399 1150.5 965.407 1149.6 965.407 1148.54L965.407 1143.71C965.407 1142.83 965.612 1141.93 966.227 1141.41L968.671 1138.01C969.68 1136.58 970.5 1134.8 970.5 1133.02L970.5 1113.39C970.09 1111.07 968.466 1108.76 966.022 1107.68L960.126 1105.01 960.126 1104.83 960.126 1101.61C963.168 1099.65 965.202 1096.44 965.202 1092.7L965.202 1088.23C965.202 1083.43 960.536 1079.5 955.239 1079.5Z" stroke="#FFFFFF" stroke-width="4.58333" stroke-miterlimit="8" fill="#FFFFFF" fill-rule="evenodd"/><path d="M996.024 1083.6C998.672 1083.6 1001.32 1085.57 1001.32 1088.23L1001.32 1092.7C1001.11 1096.8 997.852 1099.65 993.394 1099.65 989.123 1099.65 985.656 1096.44 985.656 1092.7L985.656 1088.23C985.656 1085.75 987.893 1083.6 990.951 1083.6ZM996.024 1103.94 996.024 1104.83C996.024 1105.36 996.229 1106.26 996.639 1106.98L993.394 1109.82 989.926 1106.98C990.336 1106.26 990.541 1105.54 990.541 1104.83L990.541 1103.94ZM991.156 1079.5C985.656 1079.5 981.18 1083.6 981.18 1088.23L981.18 1092.7C981.18 1096.26 983.213 1099.65 986.271 1101.61L986.271 1104.83 986.271 1105.01 980.566 1107.68C977.935 1108.76 976.5 1111.07 976.5 1113.39L976.5 1133.02C976.5 1134.8 976.91 1136.4 978.14 1138.01L980.771 1141.41C981.18 1141.93 981.59 1142.83 981.59 1143.71L981.59 1148.54C981.59 1149.6 982.615 1150.5 983.828 1150.5 985.041 1150.5 986.066 1149.6 986.066 1148.54L986.066 1143.71C986.066 1141.93 985.656 1140.51 984.238 1138.9L981.795 1135.52C981.18 1134.8 980.975 1133.9 980.975 1133.02L980.975 1113.39C980.975 1112.51 981.59 1111.61 982.615 1111.25L986.681 1109.46 990.336 1112.86C991.344 1113.75 992.779 1114.11 993.992 1114.11 995.221 1114.11 996.434 1113.75 997.459 1112.86L1001.32 1109.46 1005.39 1111.25C1006.41 1111.61 1007.01 1112.33 1007.01 1113.39L1007.01 1133.02C1007.01 1133.9 1006.6 1134.8 1006.2 1135.52L1003.56 1138.9C1002.53 1140.15 1001.93 1141.93 1001.93 1143.71L1001.93 1148.54C1001.93 1149.6 1002.94 1150.5 1004.17 1150.5 1005.39 1150.5 1006.41 1149.6 1006.41 1148.54L1006.41 1143.71C1006.41 1142.83 1006.6 1141.93 1007.21 1141.41L1009.66 1138.01C1010.68 1136.58 1011.48 1134.8 1011.48 1133.02L1011.48 1113.39C1011.07 1111.07 1009.45 1108.76 1007.01 1107.68L1001.11 1105.01 1001.11 1104.83 1001.11 1101.61C1004.17 1099.65 1006.2 1096.44 1006.2 1092.7L1006.2 1088.23C1006.2 1083.43 1001.52 1079.5 996.229 1079.5Z" stroke="#FFFFFF" stroke-width="4.58333" stroke-miterlimit="8" fill="#FFFFFF" fill-rule="evenodd"/><path d="M930.315 1015.24 930.315 1015.24C926.844 1017.95 923.391 1021.37 920.331 1025.51 918.297 1028.22 916.673 1031.27 915.049 1034.51L901.817 1034.51C908.946 1025.87 918.912 1019.2 930.315 1015.24ZM950.658 1011.64 950.658 1034.51 920.331 1034.51C927.46 1021.37 938.452 1012.73 950.658 1011.64ZM955.342 1011.64C967.753 1012.55 978.745 1021.37 985.464 1034.51L955.342 1034.51 955.342 1011.64ZM975.702 1015.24 975.702 1015.24C987.105 1019.2 996.661 1025.87 1004.2 1034.51L990.968 1034.51C989.344 1031.27 987.498 1028.4 985.464 1025.51 982.421 1021.37 979.156 1017.95 975.702 1015.24ZM913.22 1038.47C909.544 1046.76 907.715 1056.12 907.51 1065.66L889.406 1065.66C889.799 1055.75 893.27 1046.39 898.757 1038.47ZM950.658 1038.47 950.658 1065.66 912.194 1065.66C912.604 1055.75 914.639 1046.39 918.092 1038.47ZM987.908 1038.47C991.379 1046.57 993.413 1055.75 993.618 1065.66L955.342 1065.66 955.342 1038.47ZM1007.45 1038.47C1012.95 1046.57 1016.41 1055.75 1016.82 1065.66L998.49 1065.66C998.285 1056.12 996.251 1046.76 993.003 1038.47ZM952.897 1007.5C934.589 1007.5 917.493 1013.81 904.672 1025.15 891.646 1036.67 884.517 1051.79 884.517 1068 884.517 1076.11 886.346 1084.03 889.799 1091.23 890.261 1092.03 891.064 1092.44 891.953 1092.44 892.244 1092.44 892.552 1092.39 892.859 1092.3 894.073 1091.77 894.689 1090.69 894.073 1089.61 891.03 1083.31 889.594 1076.82 889.406 1069.98L907.305 1069.98 907.305 1072.51C907.305 1073.58 908.741 1074.49 909.955 1074.49 911.185 1074.49 912.194 1073.4 912.194 1072.33L912.194 1069.98 950.658 1069.98 950.658 1072.51C950.658 1073.58 951.684 1074.49 952.897 1074.49 954.128 1074.49 955.137 1073.58 955.137 1072.51L955.137 1069.98 993.618 1069.98 993.618 1072.33C993.618 1073.4 994.627 1074.49 995.857 1074.49 997.276 1074.49 998.285 1073.58 998.285 1072.51L998.285 1069.98 1016.2 1069.98C1016 1076.82 1014.58 1083.31 1011.52 1089.61 1010.92 1090.69 1011.52 1091.77 1012.75 1092.3 1012.95 1092.3 1013.16 1092.48 1013.76 1092.48 1014.78 1092.48 1015.59 1092.12 1016 1091.23 1019.67 1083.67 1021.29 1075.93 1021.29 1068 1021.5 1051.79 1014.37 1036.49 1001.34 1025.15 988.318 1013.81 971.223 1007.5 952.897 1007.5Z" stroke="#FFFFFF" stroke-width="4.58333" stroke-miterlimit="8" fill="#FFFFFF" fill-rule="evenodd"/></g></svg>