<svg width="187" height="188" xmlns="http://www.w3.org/2000/svg" xmlns:xlink="http://www.w3.org/1999/xlink" xml:space="preserve" overflow="hidden"><defs><clipPath id="clip0"><rect x="2137" y="816" width="187" height="188"/></clipPath></defs><g clip-path="url(#clip0)" transform="translate(-2137 -816)"><path d="M2241.77 823.628C2241.77 823.628 2242.16 823.628 2242.16 823.827L2242.16 831.503C2242.16 834.266 2243.73 836.433 2246.48 836.83 2255.08 838.798 2263.13 842.14 2270.56 847.07 2271.48 847.649 2272.54 847.947 2273.59 847.947 2275 847.947 2276.4 847.401 2277.42 846.276L2282.7 840.767 2282.9 840.767 2299.16 857.112 2299.16 857.31 2293.68 862.819C2291.72 864.788 2291.52 867.352 2293.09 869.717 2297.59 876.996 2301.11 885.086 2303.09 893.738 2303.47 896.302 2305.82 898.271 2308.37 898.271L2316 898.271C2316 898.271 2316.4 898.271 2316.4 898.469L2316 921.712 2308.37 921.712C2305.82 921.712 2303.47 923.284 2303.09 926.047 2301.11 934.715 2297.99 942.788 2293.09 950.282 2291.52 952.449 2291.72 955.394 2293.68 957.164L2299.16 962.491 2299.16 962.69 2282.9 979.034 2282.7 979.034 2277.42 973.509C2276.34 972.417 2275 971.871 2273.67 971.871 2272.6 971.871 2271.52 972.219 2270.56 972.93 2263.13 977.463 2255.08 981.003 2246.48 982.972 2244.12 983.369 2242.16 985.734 2242.16 988.282L2242.16 995.974C2242.16 995.974 2242.16 996.173 2241.77 996.173L2219.05 996.173C2219.05 996.173 2218.85 996.173 2218.85 995.974L2218.85 988.282C2218.85 985.734 2217.09 983.369 2214.34 982.972 2205.92 981.003 2197.69 977.843 2190.44 972.93 2189.47 972.334 2188.48 971.937 2187.51 971.937 2185.95 971.937 2184.76 972.334 2183.59 973.509L2178.1 979.034 2177.9 979.034 2161.84 962.69 2161.84 962.491 2167.14 957.164C2169.1 955.196 2169.3 952.449 2167.91 950.282 2163.21 942.788 2159.89 934.715 2157.93 926.047 2157.33 923.681 2155.18 921.712 2152.45 921.712L2144.8 921.712C2144.8 921.712 2144.6 921.712 2144.6 921.315L2144.6 898.469C2144.6 898.469 2144.6 898.271 2144.8 898.271L2152.45 898.271C2155.18 898.271 2157.33 896.501 2157.93 893.738 2159.89 885.086 2163.03 876.996 2167.91 869.717 2169.3 867.352 2169.1 864.391 2167.14 862.819L2161.84 857.31 2161.84 857.112 2177.9 840.767 2178.1 840.767 2183.59 846.276C2184.71 847.401 2186.09 847.947 2187.48 847.947 2188.5 847.947 2189.53 847.649 2190.44 847.07 2197.69 842.339 2205.92 838.798 2214.34 836.83 2216.89 836.433 2218.85 834.266 2218.85 831.503L2218.85 823.827C2218.85 823.827 2218.85 823.628 2219.05 823.628ZM2219.05 818.5C2216.1 818.5 2213.75 820.866 2213.75 823.827L2213.75 831.503C2213.75 831.503 2213.75 831.701 2213.36 831.701 2204.16 833.67 2195.54 837.409 2187.71 842.537L2187.51 842.537 2182.01 837.21C2180.94 836.135 2179.58 835.589 2178.18 835.589 2176.78 835.589 2175.37 836.135 2174.18 837.21L2158.12 853.373C2155.97 855.738 2155.97 859.08 2158.12 861.247L2163.41 866.756 2163.41 866.955C2158.32 874.829 2154.98 883.696 2152.65 892.762 2152.65 892.762 2152.65 893.159 2152.45 893.159L2144.8 893.159C2141.87 893.159 2139.52 895.525 2139.52 898.469L2139.52 921.315C2139.52 924.277 2141.87 926.841 2144.8 926.841L2152.45 926.841C2152.45 926.841 2152.65 926.841 2152.65 927.039 2154.6 936.485 2158.32 944.955 2163.41 952.83L2163.41 953.227 2158.12 958.554C2155.97 960.721 2155.97 964.261 2158.12 966.428L2174.18 982.773C2175.37 983.865 2176.78 984.394 2178.18 984.394 2179.58 984.394 2180.94 983.865 2182.01 982.773L2187.51 977.264 2187.71 977.264C2195.54 982.376 2204.36 985.933 2213.36 988.1 2213.36 988.1 2213.75 988.1 2213.75 988.282L2213.75 995.974C2213.75 998.919 2216.1 1001.48 2219.05 1001.48L2241.77 1001.48C2244.7 1001.48 2247.25 998.919 2247.25 995.974L2247.25 988.282C2247.25 988.282 2247.25 988.1 2247.45 988.1 2256.86 986.115 2265.28 982.376 2273.11 977.264L2273.51 977.264 2278.79 982.773C2279.87 983.865 2281.29 984.394 2282.7 984.394 2284.14 984.394 2285.55 983.865 2286.62 982.773L2302.89 966.428C2305.05 964.261 2305.05 960.721 2302.89 958.554L2297.4 953.227 2297.4 952.83C2302.69 944.955 2306.02 936.088 2308.17 927.039 2308.17 927.039 2308.17 926.841 2308.37 926.841L2316 926.841C2318.95 926.841 2321.5 924.277 2321.5 921.315L2321.5 898.469C2321.5 895.525 2318.95 893.159 2316 893.159L2308.37 893.159C2308.37 893.159 2308.17 893.159 2308.17 892.762 2306.22 883.498 2302.5 874.829 2297.4 866.955L2297.4 866.756 2302.89 861.247C2305.05 859.08 2305.05 855.54 2302.89 853.373L2286.62 837.21C2285.55 836.135 2284.14 835.589 2282.7 835.589 2281.29 835.589 2279.87 836.135 2278.79 837.21L2273.51 842.537 2273.11 842.537C2265.28 837.409 2256.46 834.067 2247.45 831.701 2247.45 831.701 2247.25 831.701 2247.25 831.503L2247.25 823.827C2247.25 820.866 2244.7 818.5 2241.77 818.5Z" stroke="#FFFFFF" stroke-width="4.58333" stroke-miterlimit="8" fill="#FFFFFF" fill-rule="evenodd"/><path d="M2230.97 853.5C2229.92 853.5 2228.87 853.533 2227.84 853.598 2213.76 854.369 2200.48 860.237 2190.7 870.186 2180.74 880.135 2174.88 893.411 2174.09 907.261 2173.52 921.111 2177.82 934.781 2186.6 945.516 2187.19 946.287 2187.78 946.483 2188.55 946.483 2189.14 946.483 2189.73 946.287 2190.32 946.09 2191.49 945.123 2191.49 943.369 2190.7 942.386 2182.89 932.633 2178.78 920.144 2179.57 907.654 2180.34 894.968 2185.43 883.069 2194.42 874.087 2203.4 865.105 2215.51 859.646 2228.21 859.253 2229.25 859.188 2230.26 859.155 2231.28 859.155 2242.87 859.155 2253.83 863.203 2262.81 870.382 2263.32 870.792 2263.92 871.005 2264.53 871.005 2265.32 871.005 2266.07 870.645 2266.52 869.989 2267.48 868.432 2267.3 866.858 2266.32 866.088 2256.37 857.958 2243.92 853.5 2230.97 853.5Z" stroke="#FFFFFF" stroke-width="4.58333" stroke-miterlimit="8" fill="#FFFFFF" fill-rule="evenodd"/><path d="M2247.6 875.415 2247.6 886.435C2247.6 888.203 2247.01 890.169 2246.25 891.54L2245.07 894.299C2244.87 894.696 2244.87 895.092 2244.87 895.489L2244.87 901.189C2244.87 905.121 2243.32 908.855 2240.39 911.614 2237.48 914.175 2233.99 915.745 2229.88 915.745 2222.5 915.546 2216.07 908.657 2216.07 900.396L2216.07 895.489C2216.07 895.092 2216.07 894.696 2215.88 894.299L2214.13 891.16C2213.74 889.772 2213.16 888.599 2213.16 887.211L2213.16 886.831C2213.16 880.536 2218.41 875.415 2224.64 875.415ZM2224.64 919.875C2226.39 920.47 2228.14 920.85 2230.08 920.85L2230.67 920.85C2232.61 920.85 2234.56 920.668 2236.5 919.875L2236.5 919.875C2236.31 920.85 2236.5 921.643 2236.9 922.436L2234.56 924.6C2233.4 925.774 2232.03 926.368 2230.47 926.368 2229.12 926.368 2227.56 925.774 2226.39 924.6L2224.24 922.436C2224.44 921.643 2224.64 920.85 2224.64 919.875ZM2239.43 926.765C2240.21 927.343 2240.98 927.541 2241.57 927.74L2251.1 930.499C2253.63 931.275 2255.19 933.44 2255.19 936.199L2255.19 954.29 2255.97 954.29C2254.03 955.48 2252.08 956.455 2249.94 957.248L2249.94 941.122C2249.94 939.553 2248.76 938.363 2247.21 938.363 2245.85 938.363 2244.48 939.553 2244.48 941.122L2244.48 959.214C2240.59 960.404 2236.9 960.982 2232.81 961.18L2230.47 961.18C2225.62 961.18 2220.75 960.404 2216.07 959.214L2216.07 941.122C2216.07 939.553 2214.91 938.363 2213.34 938.363 2211.99 938.363 2210.83 939.553 2210.83 941.122L2210.83 957.248C2208.88 956.273 2206.54 955.282 2204.6 954.29L2204.6 936.199C2204.6 933.44 2206.35 931.275 2208.88 930.499L2218.21 927.74C2219 927.541 2219.96 927.343 2220.55 926.765L2222.1 928.533C2224.44 930.697 2227.37 931.672 2229.88 931.672 2232.81 931.672 2235.54 930.697 2237.68 928.533L2239.43 926.765ZM2224.44 869.516C2215.11 869.516 2207.7 877.182 2207.7 886.435L2207.7 886.633C2207.7 888.797 2208.1 891.16 2209.08 893.126L2210.63 895.869 2210.63 900.198C2210.63 907.087 2213.93 913.184 2219 917.116L2219 919.677C2219 920.85 2218.02 922.04 2216.86 922.634L2207.31 925.377C2202.46 926.765 2199.34 931.275 2199.34 936.199L2199.34 950.556C2198.94 950.358 2198.57 949.78 2198.17 949.582 2197.68 949.169 2197.1 948.97 2196.52 948.97 2195.71 948.97 2194.92 949.367 2194.48 950.16 2193.5 951.349 2193.7 953.117 2195.05 953.712 2204.97 961.973 2217.63 966.5 2230.47 966.5L2233.2 966.5C2247.21 965.905 2260.45 960.007 2270.17 949.78 2280.1 939.735 2285.93 926.567 2286.72 912.391 2287.5 898.43 2283.02 884.667 2274.26 873.845 2273.72 873.184 2272.95 872.903 2272.2 872.903 2271.6 872.903 2271.01 873.102 2270.57 873.449 2269.39 874.44 2269.39 876.208 2270.17 877.182 2277.95 887.03 2282.04 899.421 2281.27 912.011 2280.68 924.799 2275.44 936.794 2266.48 946.029 2264.73 947.616 2263.16 949.185 2261.41 950.556L2261.41 936.199C2261.41 931.275 2257.92 926.765 2253.44 925.377L2243.91 922.634C2242.73 922.04 2241.77 921.048 2241.77 919.677L2241.77 917.513C2242.73 916.72 2243.32 916.141 2244.1 915.15 2247.99 911.614 2249.94 906.294 2249.94 900.991L2249.94 895.869 2250.9 893.506C2252.08 891.16 2252.67 888.599 2252.67 886.038L2252.67 872.276C2252.67 870.689 2251.49 869.516 2249.94 869.516Z" stroke="#FFFFFF" stroke-width="4.58333" stroke-miterlimit="8" fill="#FFFFFF" fill-rule="evenodd"/><path d="M2222.08 884.516C2220.7 884.516 2219.52 885.675 2219.52 887.243 2219.52 888.598 2220.7 889.757 2222.08 889.757 2225.06 889.757 2233.98 890.345 2238.34 892.288 2238.72 892.484 2238.92 892.484 2239.52 892.484 2240.52 892.484 2241.5 892.092 2241.9 891.128 2242.5 889.757 2241.9 888.206 2240.72 887.618 2234.56 884.516 2222.68 884.516 2222.08 884.516Z" stroke="#FFFFFF" stroke-width="4.58333" stroke-miterlimit="8" fill="#FFFFFF" fill-rule="evenodd"/></g></svg>