<svg width="135" height="141" xmlns="http://www.w3.org/2000/svg" xmlns:xlink="http://www.w3.org/1999/xlink" xml:space="preserve" overflow="hidden"><defs><clipPath id="clip0"><rect x="1335" y="1077" width="135" height="141"/></clipPath></defs><g clip-path="url(#clip0)" transform="translate(-1335 -1077)"><path d="M1384.45 1079.51C1381.52 1079.51 1378.86 1081.88 1378.19 1084.94L1376.2 1095.12C1374.21 1095.82 1372.21 1096.65 1370.35 1097.5L1362.23 1091.77C1361.17 1091.01 1359.93 1090.65 1358.71 1090.65 1357.03 1090.65 1355.36 1091.33 1354.13 1092.61L1349.87 1096.94C1347.75 1099.3 1347.48 1102.79 1349.08 1105.58L1354.53 1114.08C1353.59 1116.03 1352.8 1117.99 1352.26 1120.07L1342.56 1122.17C1339.63 1122.86 1337.51 1125.52 1337.51 1128.86L1337.51 1135.13C1337.51 1138.34 1339.63 1140.99 1342.56 1141.83L1352.26 1143.91C1352.93 1145.87 1353.73 1147.97 1354.53 1149.91L1349.08 1158.42C1347.48 1161.07 1347.75 1164.83 1349.87 1167.06L1354.13 1171.39C1355.36 1172.67 1356.99 1173.35 1358.65 1173.35 1359.87 1173.35 1361.12 1172.99 1362.23 1172.22L1370.35 1166.5C1372.21 1167.47 1374.21 1168.46 1376.2 1168.88L1378.19 1179.06C1378.86 1182.12 1381.39 1184.49 1384.45 1184.49L1390.43 1184.49C1393.48 1184.49 1396.14 1182.12 1396.81 1179.06L1398.81 1168.88C1400.27 1168.46 1401.99 1167.76 1403.45 1167.06 1404.52 1166.64 1404.91 1165.25 1404.52 1164.28 1404.12 1163.45 1403.36 1163 1402.61 1163 1402.36 1163 1402.1 1163.05 1401.86 1163.15 1400.14 1164.14 1398.54 1164.83 1396.67 1165.25 1396.01 1165.53 1395.34 1166.22 1395.21 1166.78L1392.96 1178.21C1392.82 1179.2 1391.88 1180.17 1390.69 1180.17L1384.71 1180.17C1383.51 1180.17 1382.71 1179.2 1382.31 1178.21L1380.19 1166.78C1380.06 1165.95 1379.52 1165.39 1378.73 1165.25 1376.2 1164.55 1373.67 1163.57 1371.55 1162.18 1371.21 1161.97 1370.84 1161.87 1370.49 1161.87 1370.12 1161.87 1369.75 1161.97 1369.42 1162.18L1360.25 1168.6C1359.9 1168.89 1359.45 1169.04 1359.01 1169.04 1358.43 1169.04 1357.83 1168.79 1357.46 1168.32L1353.33 1163.86C1352.4 1163.01 1352.4 1161.76 1352.93 1160.93L1359.05 1151.3C1359.58 1150.61 1359.58 1149.77 1359.05 1149.08 1357.72 1146.7 1356.79 1144.2 1356.13 1141.55 1355.99 1140.85 1355.32 1140.16 1354.66 1140.02L1343.75 1137.78C1342.83 1137.51 1342.03 1136.53 1342.03 1135.27L1342.03 1129C1342.03 1127.88 1342.83 1126.91 1343.75 1126.63L1354.66 1124.39C1355.46 1124.13 1355.99 1123.7 1356.13 1122.73 1356.79 1120.21 1357.72 1117.57 1359.05 1115.34 1359.44 1114.64 1359.44 1113.67 1359.05 1112.97L1352.93 1103.49C1352.26 1102.51 1352.4 1101.12 1353.33 1100.42L1357.46 1096.09C1357.89 1095.64 1358.45 1095.42 1359 1095.42 1359.44 1095.42 1359.89 1095.57 1360.25 1095.82L1369.42 1102.23C1369.75 1102.51 1370.12 1102.65 1370.49 1102.65 1370.84 1102.65 1371.21 1102.51 1371.55 1102.23 1373.94 1100.83 1376.2 1099.72 1378.73 1099.03 1379.39 1098.89 1380.06 1098.19 1380.19 1097.5L1382.31 1086.2C1382.58 1085.09 1383.51 1084.24 1384.71 1084.24L1390.69 1084.24C1391.88 1084.24 1392.69 1085.09 1392.96 1086.2L1395.21 1097.5C1395.34 1098.33 1395.75 1098.89 1396.67 1099.03 1399.06 1099.72 1401.6 1100.83 1403.72 1102.23 1404.06 1102.37 1404.46 1102.44 1404.85 1102.44 1405.25 1102.44 1405.65 1102.37 1405.99 1102.23L1415.02 1095.82C1415.42 1095.52 1415.9 1095.38 1416.37 1095.38 1416.98 1095.38 1417.57 1095.62 1417.95 1096.09L1422.07 1100.42C1422.87 1101.4 1422.87 1102.51 1422.34 1103.49L1416.22 1112.97C1415.69 1113.67 1415.69 1114.5 1416.22 1115.34 1417.54 1117.71 1418.62 1120.21 1419.28 1122.73 1419.41 1123.42 1420.08 1124.13 1420.74 1124.39L1431.51 1126.63C1432.58 1126.77 1433.37 1127.88 1433.37 1129L1433.37 1135.27C1433.37 1136.53 1432.58 1137.37 1431.51 1137.78L1420.74 1140.02C1419.95 1140.16 1419.41 1140.71 1419.28 1141.55 1418.75 1143.5 1418.08 1145.45 1417.29 1147.12 1416.75 1148.24 1417.29 1149.36 1418.21 1149.91 1418.51 1150.06 1418.8 1150.13 1419.07 1150.13 1419.82 1150.13 1420.48 1149.65 1420.87 1148.94 1421.54 1147.4 1422.2 1145.59 1422.74 1143.91L1432.31 1141.83C1435.37 1141.13 1437.49 1138.48 1437.49 1135.13L1437.49 1128.86C1437.49 1125.66 1435.37 1123 1432.31 1122.17L1422.74 1120.07C1422.07 1117.99 1421.27 1116.03 1420.34 1114.08L1425.92 1105.58C1427.52 1102.93 1427.26 1099.16 1424.99 1096.94L1420.87 1092.61C1419.64 1091.33 1418.02 1090.65 1416.35 1090.65 1415.13 1090.65 1413.88 1091.01 1412.77 1091.77L1404.65 1097.5C1402.79 1096.51 1400.79 1095.54 1398.81 1095.12L1396.81 1084.94C1396.14 1081.88 1393.61 1079.51 1390.43 1079.51Z" stroke="#000000" stroke-width="4.58333" stroke-miterlimit="8" fill="#FFFFFF" fill-rule="evenodd"/><path d="M1387.56 1108.5C1381.57 1108.5 1375.71 1111 1371.31 1115.29 1370.5 1116.11 1370.5 1117.5 1371.31 1118.19 1371.77 1118.68 1372.34 1118.92 1372.87 1118.92 1373.4 1118.92 1373.9 1118.68 1374.24 1118.19 1377.7 1114.59 1382.5 1112.66 1387.29 1112.66 1397.83 1112.66 1406.36 1121.52 1406.36 1132.45 1406.36 1135.49 1405.7 1138.68 1404.35 1141.44 1403.69 1142.69 1404.23 1143.8 1405.16 1144.35 1405.56 1144.49 1405.82 1144.49 1406.22 1144.49 1406.9 1144.49 1407.69 1144.21 1407.96 1143.38 1409.69 1140.06 1410.49 1136.19 1410.49 1132.45 1410.49 1119.3 1400.22 1108.5 1387.56 1108.5Z" stroke="#000000" stroke-width="4.58333" stroke-miterlimit="8" fill="#FFFFFF" fill-rule="evenodd"/><path d="M1367.74 1122.51C1366.9 1122.51 1366.1 1123.07 1365.69 1124.06 1364.9 1126.47 1364.51 1129.3 1364.51 1131.99 1364.51 1145.45 1374.6 1156.5 1387.07 1156.5 1391.78 1156.5 1396.38 1154.8 1400.31 1151.82 1401.36 1151.11 1401.49 1149.7 1400.84 1148.85 1400.44 1148.17 1399.81 1147.85 1399.21 1147.85 1398.8 1147.85 1398.39 1147.99 1398.09 1148.28 1394.93 1150.84 1391 1152.25 1387.07 1152.25 1376.7 1152.25 1368.31 1143.19 1368.31 1131.99 1368.31 1129.73 1368.71 1127.6 1369.36 1125.47 1370.02 1124.2 1369.36 1122.93 1368.44 1122.64 1368.21 1122.55 1367.97 1122.51 1367.74 1122.51Z" stroke="#000000" stroke-width="4.58333" stroke-miterlimit="8" fill="#FFFFFF" fill-rule="evenodd"/><path d="M1431.75 1145.5C1429.5 1145.5 1427.51 1147.3 1426.99 1149.65L1425.79 1155.88C1424.86 1156.29 1423.67 1156.71 1422.62 1157.26L1417.71 1153.81C1416.9 1153.24 1415.99 1152.97 1415.1 1152.97 1413.82 1152.97 1412.57 1153.52 1411.62 1154.49L1408.71 1157.4C1407.13 1159.2 1406.86 1161.96 1408.05 1163.9L1411.36 1169.02C1410.7 1170.4 1410.04 1171.92 1409.77 1173.58 1409.37 1174.68 1410.04 1175.8 1411.23 1176.07 1411.46 1176.16 1411.69 1176.2 1411.9 1176.2 1412.77 1176.2 1413.42 1175.56 1413.74 1174.56 1414.14 1172.9 1414.93 1171.23 1415.47 1169.85 1415.86 1169.15 1415.86 1168.33 1415.47 1167.63L1411.62 1161.41C1411.36 1161.14 1411.36 1160.72 1411.75 1160.44L1414.53 1157.4C1414.77 1157.23 1414.96 1157.16 1415.16 1157.16 1415.29 1157.16 1415.43 1157.2 1415.6 1157.26L1421.55 1161.41C1421.88 1161.68 1422.25 1161.82 1422.62 1161.82 1422.97 1161.82 1423.34 1161.68 1423.67 1161.41 1425.13 1160.58 1426.59 1159.88 1428.18 1159.48 1428.83 1159.34 1429.5 1158.64 1429.64 1157.95L1431.09 1150.48C1431.09 1150.21 1431.48 1149.79 1431.88 1149.79L1435.72 1149.79C1436.12 1149.79 1436.39 1150.21 1436.52 1150.48L1438.11 1157.95C1438.24 1158.78 1438.63 1159.34 1439.57 1159.48 1441.16 1160.02 1442.6 1160.72 1444.06 1161.41 1444.39 1161.61 1444.76 1161.72 1445.13 1161.72 1445.48 1161.72 1445.85 1161.61 1446.18 1161.41L1452.14 1157.26C1452.25 1157.2 1452.38 1157.16 1452.52 1157.16 1452.71 1157.16 1452.91 1157.23 1453.07 1157.4L1455.98 1160.44C1456.25 1160.72 1456.25 1161.14 1456.11 1161.41L1452.14 1167.63C1451.61 1168.33 1451.61 1169.15 1452.14 1169.85 1452.93 1171.51 1453.6 1173.04 1453.99 1174.56 1454.12 1175.24 1454.79 1175.94 1455.45 1176.07L1462.6 1177.73C1462.86 1177.73 1463.26 1178.01 1463.26 1178.57L1463.26 1182.57C1463.26 1182.85 1462.86 1183.27 1462.6 1183.41L1455.45 1184.92C1454.66 1185.06 1454.12 1185.62 1453.99 1186.44 1453.47 1188.24 1452.8 1189.77 1452.14 1191.15 1451.74 1191.85 1451.74 1192.67 1452.14 1193.37L1456.11 1199.59C1456.25 1200 1456.25 1200.28 1455.98 1200.7L1453.07 1203.6C1452.92 1203.82 1452.73 1203.93 1452.55 1203.93 1452.41 1203.93 1452.25 1203.86 1452.14 1203.74L1446.18 1199.59C1445.85 1199.39 1445.48 1199.28 1445.13 1199.28 1444.76 1199.28 1444.39 1199.39 1444.06 1199.59 1442.48 1200.56 1441.02 1201.24 1439.57 1201.52 1438.9 1201.66 1438.24 1202.36 1438.11 1203.05L1436.52 1210.52C1436.52 1210.93 1436.25 1211.21 1435.72 1211.21L1431.88 1211.21C1431.61 1211.21 1431.23 1210.93 1431.09 1210.52L1429.64 1203.05C1429.5 1202.22 1428.97 1201.66 1428.18 1201.52 1426.45 1200.98 1425 1200.28 1423.67 1199.59 1423.34 1199.46 1422.97 1199.39 1422.62 1199.39 1422.25 1199.39 1421.88 1199.46 1421.55 1199.59L1415.6 1203.74C1415.42 1203.86 1415.27 1203.93 1415.11 1203.93 1414.93 1203.93 1414.76 1203.82 1414.53 1203.6L1411.75 1200.7C1411.36 1200.28 1411.36 1200 1411.62 1199.59L1415.47 1193.37C1415.99 1192.67 1415.99 1191.85 1415.47 1191.15 1414.67 1189.63 1414.01 1188.1 1413.74 1186.44 1413.48 1185.76 1412.82 1185.06 1412.15 1184.92L1405.14 1183.41C1404.74 1183.41 1404.47 1182.99 1404.47 1182.57L1404.47 1178.57C1404.47 1178.15 1404.74 1177.87 1405.14 1177.73L1405.54 1177.46C1406.73 1177.32 1407.38 1176.07 1407.26 1175.1 1407.14 1173.96 1406.13 1173.29 1405.25 1173.29 1405.16 1173.29 1405.08 1173.29 1405 1173.3L1404.47 1173.58C1402.09 1174 1400.5 1176.07 1400.5 1178.57L1400.5 1182.57C1400.5 1184.92 1402.09 1187 1404.47 1187.56L1410.43 1188.8C1410.7 1189.77 1411.23 1191.01 1411.75 1191.98L1408.45 1197.24C1407.13 1199.32 1407.38 1201.94 1409.11 1203.6L1411.89 1206.51C1412.87 1207.53 1414.14 1208.02 1415.38 1208.02 1416.32 1208.02 1417.24 1207.74 1417.98 1207.19L1423.01 1203.74C1423.94 1204.29 1425 1204.85 1426.19 1205.12L1427.24 1211.35C1427.78 1213.84 1429.77 1215.5 1432.15 1215.5L1435.85 1215.5C1438.24 1215.5 1440.22 1213.84 1440.76 1211.35L1441.81 1205.12C1442.87 1204.85 1444.06 1204.29 1444.99 1203.74L1450.02 1207.19C1450.86 1207.79 1451.78 1208.08 1452.68 1208.08 1453.91 1208.08 1455.12 1207.54 1456.11 1206.51L1458.89 1203.6C1460.62 1201.94 1460.75 1199.18 1459.55 1197.24L1456.25 1191.98C1456.77 1191.01 1457.3 1189.9 1457.57 1188.8L1463.53 1187.56C1465.91 1187 1467.5 1184.92 1467.5 1182.57L1467.5 1178.57C1467.23 1176.07 1465.51 1174 1463.26 1173.58L1457.3 1172.34C1456.9 1171.23 1456.38 1170.13 1455.98 1169.02L1459.29 1163.9C1460.62 1161.82 1460.22 1159.2 1458.63 1157.4L1455.71 1154.49C1454.79 1153.53 1453.5 1153.03 1452.22 1153.03 1451.31 1153.03 1450.4 1153.28 1449.63 1153.81L1444.73 1157.26C1443.67 1156.71 1442.6 1156.29 1441.55 1155.88L1440.36 1149.65C1439.82 1147.3 1437.84 1145.5 1435.58 1145.5Z" stroke="#000000" stroke-width="4.58333" stroke-miterlimit="8" fill="#FFFFFF" fill-rule="evenodd"/><path d="M1434.01 1168.5C1427.58 1168.5 1422.51 1173.81 1422.51 1180.49 1422.51 1187.05 1427.58 1192.49 1434.01 1192.49 1436.54 1192.49 1438.94 1191.66 1440.95 1190.12 1441.89 1189.42 1442.02 1188.03 1441.36 1187.05 1440.98 1186.57 1440.38 1186.33 1439.79 1186.33 1439.34 1186.33 1438.9 1186.47 1438.55 1186.77 1437.22 1187.76 1435.61 1188.31 1434.01 1188.31 1430 1188.31 1426.65 1184.82 1426.65 1180.63 1426.79 1176.17 1430.13 1172.83 1434.14 1172.83 1438.15 1172.83 1441.49 1176.31 1441.49 1180.49 1441.49 1181.76 1442.42 1182.59 1443.49 1182.59 1444.56 1182.59 1445.5 1181.48 1445.5 1180.49 1445.5 1173.81 1440.28 1168.5 1434.01 1168.5Z" stroke="#000000" stroke-width="4.58333" stroke-miterlimit="8" fill="#FFFFFF" fill-rule="evenodd"/><path d="M1386.93 1123.93C1391.47 1123.93 1395.36 1127.8 1395.36 1132.5 1395.36 1137.2 1391.47 1141.21 1386.93 1141.21 1382.26 1141.21 1378.64 1137.2 1378.64 1132.5 1378.64 1127.66 1382.39 1123.93 1386.93 1123.93ZM1386.93 1119.51C1380.11 1119.51 1374.5 1125.45 1374.5 1132.5 1374.5 1139.55 1380.11 1145.49 1386.93 1145.49 1393.89 1145.49 1399.5 1139.55 1399.5 1132.5 1399.5 1125.45 1393.89 1119.51 1386.93 1119.51Z" stroke="#000000" stroke-width="4.58333" stroke-miterlimit="8" fill="#FFFFFF" fill-rule="evenodd"/></g></svg>