<svg width="45" height="46" xmlns="http://www.w3.org/2000/svg" xmlns:xlink="http://www.w3.org/1999/xlink" xml:space="preserve" overflow="hidden"><defs><clipPath id="clip0"><rect x="504" y="244" width="45" height="46"/></clipPath></defs><g clip-path="url(#clip0)" transform="translate(-504 -244)"><path d="M30.1406 32.3906C29.4375 31.6875 29.0156 30.7031 29.0156 29.7188L28.7344 29.4375C24.4688 32.0625 19.0312 31.7813 15.0469 28.7344L14.9062 28.8281C14.3906 29.2031 14.0625 29.8125 14.0625 30.4688L14.0625 34.6875 30.9375 34.6875 30.9375 33.1875 30.1406 32.3906Z" transform="matrix(1 0 0 1.02222 504 244)"/><path d="M34.4531 18.5156C36.75 18.1406 38.2969 15.9375 37.9219 13.6406 37.5469 11.3438 35.3438 9.79688 33.0469 10.1719 32.3906 10.2656 31.7813 10.5469 31.2656 10.9219 33.1875 12.9844 34.3125 15.6563 34.4531 18.5156Z" transform="matrix(1 0 0 1.02222 504 244)"/><path d="M41.3438 22.2188C40.125 21.2812 38.7188 20.5781 37.2188 20.25 36.3281 19.9688 35.3906 19.8281 34.4531 19.7344 34.3594 21.75 33.75 23.7188 32.6719 25.4531L32.9531 25.7344C33.9375 25.7344 34.9219 26.1562 35.625 26.8594L36.8906 28.125 42.1875 28.125 42.1875 23.9062C42.1875 23.25 41.9062 22.5938 41.3438 22.2188Z" transform="matrix(1 0 0 1.02222 504 244)"/><path d="M39.0938 32.2969 34.6875 27.8438C34.0781 27.2812 33.2812 27 32.4375 27.1875L30.8438 25.6406C32.2969 23.7656 33.0469 21.5156 33.0469 19.1719 33.0938 13.2656 28.3125 8.4375 22.3594 8.39062 16.4062 8.34375 11.6719 13.125 11.6719 19.0312 11.6719 24.9375 16.4062 29.7656 22.3594 29.8125 24.7031 29.8125 27 29.0625 28.9219 27.6094L30.5156 29.1562C30.375 29.9531 30.6094 30.7969 31.1719 31.4062L35.625 35.8594C36.5625 36.8438 38.1562 36.8906 39.1406 35.9531 40.125 35.0156 40.1719 33.4219 39.2344 32.4375 39.1875 32.3906 39.1406 32.3438 39.0938 32.2969L39.0938 32.2969ZM22.4062 10.5938C27.1406 10.5938 30.9375 14.3906 30.9375 19.125 30.9375 21.1406 30.2344 23.1094 28.9219 24.6094 28.0312 24.1875 27.1406 23.8594 26.2031 23.625 24.9375 23.25 23.625 23.0156 22.3125 23.0156 21 23.0156 19.6875 23.25 18.4219 23.625 17.5312 23.8594 16.6875 24.1875 15.8906 24.6562 12.8438 21.0938 13.2656 15.7031 16.8281 12.6562 18.375 11.2969 20.3438 10.5938 22.4062 10.5938Z" transform="matrix(1 0 0 1.02222 504 244)"/><path d="M27.0469 17.25C27.0469 19.8647 24.9272 21.9844 22.3125 21.9844 19.6978 21.9844 17.5781 19.8647 17.5781 17.25 17.5781 14.6353 19.6978 12.5156 22.3125 12.5156 24.9272 12.5156 27.0469 14.6353 27.0469 17.25Z" transform="matrix(1 0 0 1.02222 504 244)"/><path d="M10.3125 19.7344C9.46875 19.8281 8.625 19.9688 7.78125 20.25 6.32812 20.6719 4.92188 21.375 3.65625 22.2188 3.09375 22.5938 2.8125 23.25 2.8125 23.9062L2.8125 28.125 12.9375 28.125C13.125 27.8438 13.3594 27.6094 13.6406 27.4219 11.625 25.3125 10.4531 22.5938 10.3125 19.7344Z" transform="matrix(1 0 0 1.02222 504 244)"/><path d="M10.3125 18.4688C10.4531 15.6094 11.625 12.9375 13.5938 10.8281 11.6719 9.51562 9.04688 10.0312 7.73438 12 6.42188 13.9688 6.9375 16.5469 8.90625 17.8594 9.32812 18.1406 9.79688 18.3281 10.3125 18.4688Z" transform="matrix(1 0 0 1.02222 504 244)"/></g></svg>