<svg width="111" height="112" xmlns="http://www.w3.org/2000/svg" xmlns:xlink="http://www.w3.org/1999/xlink" xml:space="preserve" overflow="hidden"><defs><clipPath id="clip0"><rect x="1089" y="611" width="111" height="112"/></clipPath></defs><g clip-path="url(#clip0)" transform="translate(-1089 -611)"><path d="M1144.99 631.006C1125.15 631.006 1109 647.148 1109 667.012 1109 686.858 1125.15 703 1144.99 703 1164.85 703 1181 686.858 1181 667.012 1181 661.25 1179.48 655.68 1176.88 650.638L1175.24 650.638 1171.48 654.393C1173.41 658.317 1174.42 662.63 1174.45 667.012 1174.45 683.241 1161.22 696.456 1144.99 696.456 1128.76 696.456 1115.54 683.241 1115.54 667.012 1115.54 650.759 1128.76 637.55 1144.99 637.55 1149.37 637.567 1153.68 638.576 1157.61 640.5L1161.36 636.761 1161.36 635.104C1156.32 632.507 1150.75 631.006 1144.99 631.006Z" fill="#FFFFFF" fill-rule="evenodd"/><path d="M1144.9 644C1135.56 644 1127.16 649.609 1123.57 658.193 1120 666.799 1121.99 676.68 1128.58 683.267 1132.99 687.661 1138.9 689.994 1144.9 689.994 1147.88 689.994 1150.88 689.424 1153.73 688.242 1162.37 684.687 1167.99 676.296 1167.99 667.009 1167.96 664.378 1167.49 661.8 1166.57 659.351L1161.17 664.745C1161.3 665.484 1161.37 666.235 1161.4 667.009 1161.4 673.648 1157.37 679.642 1151.22 682.185 1149.18 683.023 1147.03 683.43 1144.91 683.43 1140.62 683.43 1136.4 681.76 1133.25 678.606 1128.53 673.91 1127.12 666.851 1129.68 660.718 1132.22 654.567 1138.24 650.57 1144.9 650.57 1145.66 650.587 1146.41 650.657 1147.17 650.797L1152.59 645.402C1150.13 644.489 1147.52 644.017 1144.9 644Z" fill="#FFFFFF" fill-rule="evenodd"/><path d="M1144.7 611.006C1114.22 611.006 1089 636.029 1089 666.794 1089 697.541 1114.22 723 1144.7 723 1175.19 723 1199.99 697.541 1199.99 666.794 1199.98 658.675 1198.21 650.638 1194.79 643.293L1190.63 647.489C1188.79 649.348 1186.31 650.377 1183.73 650.377L1183.63 650.377C1185.81 655.578 1186.96 661.139 1186.99 666.794 1186.99 690.312 1168.02 709.436 1144.7 709.436 1121.4 709.436 1102.44 690.312 1102.44 666.794 1102.44 643.275 1121.4 624.127 1144.7 624.127 1150.29 624.162 1155.83 625.319 1160.97 627.527L1160.97 627.417C1160.96 624.796 1161.98 622.291 1163.82 620.455L1167.98 616.253C1160.7 612.807 1152.76 611.023 1144.7 611.006Z" fill="#FFFFFF" fill-rule="evenodd"/><path d="M1183.6 611.006C1182.79 611.006 1181.97 611.299 1181.31 611.967L1168.28 624.962C1167.67 625.566 1167.33 626.401 1167.34 627.264L1167.34 638.913 1148.73 657.474C1147.43 656.852 1146 656.501 1144.54 656.501 1140.59 656.501 1137.03 658.878 1135.52 662.516 1134.01 666.159 1134.84 670.348 1137.63 673.14 1139.5 675.01 1142 676 1144.54 676 1145.8 676 1147.07 675.753 1148.28 675.258 1151.92 673.75 1154.32 670.193 1154.32 666.262 1154.31 664.806 1153.97 663.385 1153.33 662.084L1171.95 643.506 1183.62 643.506C1184.48 643.506 1185.3 643.16 1185.93 642.55L1198.95 629.555C1201 627.512 1199.54 624.007 1196.64 624.007L1186.88 624.007 1186.88 614.269C1186.88 612.301 1185.28 611.006 1183.6 611.006Z" fill="#FFFFFF" fill-rule="evenodd"/></g></svg>